<?xml version="1.0" encoding="UTF-8" standalone="no"?>
<svg
   xmlns:dc="http://purl.org/dc/elements/1.1/"
   xmlns:cc="http://creativecommons.org/ns#"
   xmlns:rdf="http://www.w3.org/1999/02/22-rdf-syntax-ns#"
   xmlns:svg="http://www.w3.org/2000/svg"
   xmlns="http://www.w3.org/2000/svg"
   xmlns:sodipodi="http://sodipodi.sourceforge.net/DTD/sodipodi-0.dtd"
   xmlns:inkscape="http://www.inkscape.org/namespaces/inkscape"
   version="1.1"
   height="800"
   width="800"
   id="svg2"
   inkscape:version="0.48.3.1 r9886"
   sodipodi:docname="template.svg">
  <metadata
     id="metadata138">
    <rdf:RDF>
      <cc:Work
         rdf:about="">
        <dc:format>image/svg+xml</dc:format>
        <dc:type
           rdf:resource="http://purl.org/dc/dcmitype/StillImage" />
      </cc:Work>
    </rdf:RDF>
  </metadata>
  <defs
     id="defs136" />
  <sodipodi:namedview
     pagecolor="#ffffff"
     bordercolor="#666666"
     borderopacity="1"
     objecttolerance="10"
     gridtolerance="10"
     guidetolerance="10"
     inkscape:pageopacity="0"
     inkscape:pageshadow="2"
     inkscape:window-width="1235"
     inkscape:window-height="714"
     id="namedview134"
     showgrid="false"
     inkscape:zoom="1.18"
     inkscape:cx="465.11003"
     inkscape:cy="336.06938"
     inkscape:window-x="72"
     inkscape:window-y="25"
     inkscape:window-maximized="0"
     inkscape:current-layer="layer9" />
  <g
     inkscape:groupmode="layer"
     id="layer7"
     inkscape:label="h1"
     style="display:none">
    <path
       style="fill:none;stroke:#000000;stroke-width:1px;stroke-linecap:butt;stroke-linejoin:miter;stroke-opacity:1"
       d="M 486.25927,233.5742 C 502.76945,299.4637 384.53471,278.47354 327.54075,256.11185 264.44124,231.35463 261.65991,214.88306 205.26524,185.3101 144.72653,153.56404 106.94134,112.08546 22.600888,111.13637 11.415725,111.0105 7.927238,121.4689 10.187132,128.24856"
       id="h1toh3"
       inkscape:connector-curvature="0"
       sodipodi:nodetypes="csssc"
       inkscape:label="#path3115" />
    <path
       style="fill:none;stroke:#000000;stroke-width:1px;stroke-linecap:butt;stroke-linejoin:miter;stroke-opacity:1"
       d="M 472.0339,240.67796 C 472.0339,240.67796 495.37267,247.88443 488.13559,264.40678 474.08121,296.4931 369.53968,299.33494 334.74577,303.38983 256.13124,312.55157 244.11361,311.2004 144.91526,326.27118 126.67401,329.04249 107.25501,333.04534 106.77966,341.52542 106.13368,353.04962 127.11865,350 127.11865,350"
       id="h1toh4"
       inkscape:connector-curvature="0"
       sodipodi:nodetypes="cssssc"
       inkscape:label="#path3117" />
    <path
       style="fill:none;stroke:#000000;stroke-width:1px;stroke-linecap:butt;stroke-linejoin:miter;stroke-opacity:1"
       d="M 479.66102,211.01695 C 479.66102,211.01695 524.39837,216.05391 527.9661,249.15254 532.49865,291.2019 534.74793,341.74691 530.50848,358.47458 518.74233,404.90043 530.50847,408.47458 530.50847,408.47458"
       id="h1toh10"
       inkscape:connector-curvature="0"
       sodipodi:nodetypes="cssc"
       inkscape:label="#path3127" />
    <path
       style="fill:none;stroke:#000000;stroke-width:1px;stroke-linecap:butt;stroke-linejoin:miter;stroke-opacity:1"
       d="M 480.50847,220.33898 C 480.50847,220.33898 513.15947,217.25563 517.79661,260.1695 531.76494,389.43783 470.08425,483.47454 571.18645,572.0339 606.47058,602.94065 675.42373,611.8644 675.42373,611.8644"
       id="h1toh9"
       inkscape:connector-curvature="0"
       sodipodi:nodetypes="cssc"
       inkscape:label="#path3125" />
    <path
       style="fill:none;stroke:#000000;stroke-width:1px;stroke-linecap:butt;stroke-linejoin:miter;stroke-opacity:1"
       d="M 477.96609,231.35593 C 477.96609,231.35593 498.99296,225.62986 505.08474,242.37289 530.23137,311.48738 412.94388,561.08061 504.23729,704.23729 508.7889,711.37464 527.11865,720.33898 527.11865,720.33898"
       id="h1toh8"
       inkscape:connector-curvature="0"
       inkscape:label="#path3123"
       sodipodi:nodetypes="cssc" />
    <path
       style="fill:none;stroke:#000000;stroke-width:1px;stroke-linecap:butt;stroke-linejoin:miter;stroke-opacity:1"
       d="M 479.80642,236.68158 C 597.69463,256.24016 244.06353,488.59736 324.82449,539.31643"
       id="h1toh7"
       inkscape:connector-curvature="0"
       inkscape:label="#path3121"
       sodipodi:nodetypes="cc" />
    <path
       style="fill:none;stroke:#000000;stroke-width:1px;stroke-linecap:butt;stroke-linejoin:miter;stroke-opacity:1;display:inline"
       d="M 472.2388,251.19317 C 472.2388,251.19317 491.26363,262.62921 479.67792,282.67989 446.74867,339.66858 428.33725,334.43588 379.48388,389.7491 342.74541,431.34548 320.83453,444.52975 270.51413,465.22877 241.93942,476.98282 222.01915,475.64036 157.84252,478.56398 -18.124806,486.58033 9.5878886,526.14593 9.5878886,526.14593"
       id="h1toh5"
       inkscape:connector-curvature="0"
       inkscape:label="#path3215"
       sodipodi:nodetypes="cssssc" />
  </g>
  <polygon
     points="5,5 795,5 795,795 5,795"
     style="fill:none;stroke:blue;stroke-width:4;"
     id="polygon4" />
  <polygon
     points="397,5 795,397 397,795 5,397"
     style="fill:none;stroke:blue;stroke-width:3"
     id="polygon6" />
  <line
     x1="5"
     y1="5"
     x2="795"
     y2="795"
     style="stroke:rgb(20,10,245);stroke-width:2;"
     id="line8" />
  <line
     x1="795"
     y1="5"
     x2="5"
     y2="795"
     style="stroke:rgb(20,10,245);stroke-width:2;"
     id="line10" />
  <g
     font-size="12"
     font="sans-serif"
     fill="black"
     stroke="none"
     id="g12">
    <text
       x="360"
       y="240"
       id="text14">Asc: 22Ge34</text>
    <text
       x="360"
       y="220"
       id="text16">Ma: 24Ge17</text>
    <text
       x="360"
       y="200"
       id="text18">Mo: 14Ge23</text>
    <text
       x="360"
       y="180"
       id="text20">Su: 22Li21</text>
    <text
       x="360"
       y="160"
       id="text22">Su: 22Li21</text>
    <text
       x="160"
       y="115"
       id="text24">Su: 22Li21</text>
    <text
       x="160"
       y="95"
       id="text26">Su: 22Li21</text>
    <text
       x="160"
       y="75"
       id="text28">Su: 22Li21</text>
    <text
       x="160"
       y="55"
       id="text30">Su: 22Li21</text>
    <text
       x="160"
       y="35"
       id="text32">Su: 22Li21</text>
    <text
       x="15"
       y="140"
       id="text34">Ra: 19Le55R</text>
    <text
       x="15"
       y="160"
       id="text36">Su: 22Li21</text>
    <text
       x="15"
       y="180"
       id="text38">Su: 22Li21</text>
    <text
       x="15"
       y="200"
       id="text40">Su: 22Li21</text>
    <text
       x="15"
       y="220"
       id="text42">Su: 22Li21</text>
    <text
       x="160"
       y="360"
       id="text44">Su: 22Li21</text>
    <text
       x="160"
       y="380"
       id="text46">Su: 22Li21</text>
    <text
       x="160"
       y="400"
       id="text48">Su: 22Li21</text>
    <text
       x="160"
       y="420"
       id="text50">Su: 22Li21</text>
    <text
       x="160"
       y="440"
       id="text52">Su: 22Li21</text>
    <text
       x="15"
       y="560"
       id="text54">Me: 21Li28R</text>
    <text
       x="15"
       y="580"
       id="text56">Su: 22Li21</text>
    <text
       x="15"
       y="600"
       id="text58">Su: 22Li21</text>
    <text
       x="15"
       y="620"
       id="text60">Su: 22Li21</text>
    <text
       x="15"
       y="640"
       id="text62">Su: 22Li21</text>
    <text
       x="160"
       y="675"
       id="text64">Ve: 27Sc51</text>
    <text
       x="160"
       y="655"
       id="text66">Su: 22Li21</text>
    <text
       x="160"
       y="635"
       id="text68">Su: 22Li21</text>
    <text
       x="160"
       y="615"
       id="text70">Su: 22Li21</text>
    <text
       x="160"
       y="595"
       id="text72">Su: 22Li21</text>
    <text
       x="360"
       y="560"
       id="text74">Ju: 9Sa3</text>
    <text
       x="360"
       y="580"
       id="text76">Sa: 20Sa44</text>
    <text
       x="360"
       y="600"
       id="text78">Su: 22Li21</text>
    <text
       x="360"
       y="620"
       id="text80">Su: 22Li21</text>
    <text
       x="360"
       y="640"
       id="text82">Su: 22Li21</text>
    <text
       x="560"
       y="775"
       id="text84">Su: 22Li21</text>
    <text
       x="560"
       y="755"
       id="text86">Su: 22Li21</text>
    <text
       x="560"
       y="735"
       id="text88">Su: 22Li21</text>
    <text
       x="560"
       y="715"
       id="text90">Su: 22Li21</text>
    <text
       x="560"
       y="695"
       id="text92">Su: 22Li21</text>
    <text
       x="715"
       y="640"
       id="text94">Ke: 19Aq55R</text>
    <text
       x="715"
       y="620"
       id="text96">Su: 22Li21</text>
    <text
       x="715"
       y="600"
       id="text98">Su: 22Li21</text>
    <text
       x="715"
       y="580"
       id="text100">Su: 22Li21</text>
    <text
       x="715"
       y="560"
       id="text102">Su: 22Li21</text>
    <text
       x="560"
       y="440"
       id="text104">Su: 22Li21</text>
    <text
       x="560"
       y="420"
       id="text106">Su: 22Li21</text>
    <text
       x="560"
       y="400"
       id="text108">Su: 22Li21</text>
    <text
       x="560"
       y="380"
       id="text110">Su: 22Li21</text>
    <text
       x="560"
       y="360"
       id="text112">Su: 22Li21</text>
    <text
       x="715"
       y="240"
       id="text114">Su: 22Li21</text>
    <text
       x="715"
       y="220"
       id="text116">Su: 22Li21</text>
    <text
       x="715"
       y="200"
       id="text118">Su: 22Li21</text>
    <text
       x="715"
       y="180"
       id="text120">Su: 22Li21</text>
    <text
       x="715"
       y="160"
       id="text122">Su: 22Li21</text>
    <text
       x="560"
       y="115"
       id="text124">Su: 22Li21</text>
    <text
       x="560"
       y="95"
       id="text126">Su: 22Li21</text>
    <text
       x="560"
       y="75"
       id="text128">Su: 22Li21</text>
    <text
       x="560"
       y="55"
       id="text130">Su: 22Li21</text>
    <text
       x="560"
       y="35"
       id="text132">Su: 22Li21</text>
  </g>
  <g
     inkscape:groupmode="layer"
     id="layer8"
     inkscape:label="h2"
     style="display:none">
    <path
       style="fill:none;stroke:#000000;stroke-width:1px;stroke-linecap:butt;stroke-linejoin:miter;stroke-opacity:1"
       d="M 261.86441,116.10169 C 261.86441,116.10169 283.40618,140.70389 257.62712,175.42373 190.67071,265.60216 159.98563,262.78757 122.88135,318.64406 110.65684,337.04675 127.11865,348.30509 127.11865,348.30509"
       id="h2-3"
       inkscape:connector-curvature="0"
       sodipodi:nodetypes="cssc"
       inkscape:label="#path3129" />
    <path
       style="fill:none;stroke:#000000;stroke-width:1px;stroke-linecap:butt;stroke-linejoin:miter;stroke-opacity:1"
       d="M 266.94915,111.86441 C 266.94915,111.86441 302.33369,119.98431 290.67797,143.22034 207.58018,308.87815 15.890043,359.07641 5.9322034,494.0678 3.8542703,522.23687 8.4745759,541.52543 8.4745759,541.52543"
       id="h2-4"
       inkscape:connector-curvature="0"
       sodipodi:nodetypes="cssc"
       inkscape:label="#path3131" />
    <path
       style="fill:none;stroke:#000000;stroke-width:1px;stroke-linecap:butt;stroke-linejoin:miter;stroke-opacity:1"
       d="M 265.25424,108.47458 C 265.25424,108.47458 292.45926,106.08069 299.15255,115.25424 362.91433,202.64343 271.9792,301.83099 252.11595,423.01244 230.30145,556.09827 121.64881,536.07703 119.49153,631.35592 119.05305,650.72201 132.20339,651.69492 132.20339,651.69492"
       id="h2-5"
       inkscape:connector-curvature="0"
       inkscape:label="#path3133"
       sodipodi:nodetypes="csssc" />
    <path
       style="fill:none;stroke:#000000;stroke-width:1px;stroke-linecap:butt;stroke-linejoin:miter;stroke-opacity:1"
       d="M 262.71186,105.08475 C 262.71186,105.08475 294.9052,102.32888 311.01695,125.42373 355.50944,189.19997 336.52279,265.15121 366.78667,326.94328 397.05055,388.73536 426.94486,378.2695 489.83051,400 504.49335,405.06683 522.88136,406.77966 522.88136,406.77966"
       id="h2-9"
       inkscape:connector-curvature="0"
       inkscape:label="#path3139"
       sodipodi:nodetypes="csssc" />
    <path
       style="fill:none;stroke:#000000;stroke-width:1px;stroke-linecap:butt;stroke-linejoin:miter;stroke-opacity:1"
       d="M 263.55932,96.610169 C 263.55932,96.610169 308.54006,87.787331 314.40678,99.152542 356.69383,181.07244 330.76663,303.15678 379.6889,406.11305 428.61118,509.06931 557.46766,556.45682 653.38983,609.32204 667.52636,617.11305 687.28813,620.33898 687.28813,620.33898"
       id="h2-8"
       inkscape:connector-curvature="0"
       inkscape:label="#path3137"
       sodipodi:nodetypes="csssc" />
    <path
       style="fill:none;stroke:#000000;stroke-width:1px;stroke-linecap:butt;stroke-linejoin:miter;stroke-opacity:1"
       d="M 263.55932,101.69491 C 263.55932,101.69491 299.57232,91.177667 309.32204,111.86441 353.42667,205.44472 330.1195,233.8976 349.44188,351.6887 368.76426,469.4798 487.31188,506.5441 508.05085,727.54237 509.89209,747.16299 531.35593,753.38982 531.35593,753.38982"
       id="h2-7"
       inkscape:connector-curvature="0"
       sodipodi:nodetypes="csssc"
       inkscape:label="#path3135" />
    <path
       style="fill:none;stroke:#000000;stroke-width:1px;stroke-linecap:butt;stroke-linejoin:miter;stroke-opacity:1"
       d="M 263.92067,100.49945 C 263.92067,100.49945 342.42893,99.763296 368.4591,104.77933 456.08579,121.66506 494.75953,188.20665 603.38984,211.01695 633.25869,217.28884 670.84272,221.2643 670.84272,221.2643"
       id="h2-10"
       inkscape:connector-curvature="0"
       inkscape:label="#path3141"
       sodipodi:nodetypes="cssc" />
  </g>
  <g
     inkscape:groupmode="layer"
     id="layer1"
     inkscape:label="h3"
     style="display:none">
    <path
       style="fill:none;stroke:#000000;stroke-width:1px;stroke-linecap:butt;stroke-linejoin:miter;stroke-opacity:1"
       d="M 124.57627,158.47458 C 124.57627,158.47458 141.07631,165.26464 140.67797,179.66102 136.90668,315.95922 1.0837797,391.01224 4.2372881,536.44067 4.3238951,540.43469 8.4745759,550.84746 8.4745759,550.84746"
       id="h3-3"
       inkscape:connector-curvature="0"
       inkscape:label="#path3143"
       sodipodi:nodetypes="cssc" />
    <path
       style="fill:none;stroke:#000000;stroke-width:1px;stroke-linecap:butt;stroke-linejoin:miter;stroke-opacity:1"
       d="M 122.88136,156.77966 C 122.88136,156.77966 146.94535,175.60203 146.61017,188.13559 142.63643,336.72664 91.519975,445.18491 116.94915,634.74576 118.95694,649.71278 137.28814,650.84746 137.28814,650.84746"
       id="h3-4"
       inkscape:connector-curvature="0"
       inkscape:label="#path3145"
       sodipodi:nodetypes="cssc" />
    <path
       style="fill:none;stroke:#000000;stroke-width:1px;stroke-linecap:butt;stroke-linejoin:miter;stroke-opacity:1"
       d="M 123.67892,161.57359 C 123.67892,161.57359 171.8103,151.43024 186.44069,150 315.32444,137.40061 356.35441,108.60137 431.36022,104.94237 503.67889,101.41445 522.26448,104.03469 522.26448,104.03469"
       id="h3-10"
       inkscape:connector-curvature="0"
       inkscape:label="#path3157"
       sodipodi:nodetypes="cssc" />
    <path
       style="fill:none;stroke:#000000;stroke-width:1px;stroke-linecap:butt;stroke-linejoin:miter;stroke-opacity:1"
       d="M 125.42373,161.86441 C 125.42373,161.86441 171.9808,170.28425 187.28813,178.81356 330.99196,258.88596 329.81066,350.05756 461.86441,404.23729 476.79767,410.36419 520.33899,413.55932 520.33899,413.55932"
       id="h3-8"
       inkscape:connector-curvature="0"
       inkscape:label="#path3151"
       sodipodi:nodetypes="cssc" />
    <path
       style="fill:none;stroke:#000000;stroke-width:1px;stroke-linecap:butt;stroke-linejoin:miter;stroke-opacity:1"
       d="M 124.77459,160.65862 C 124.77459,160.65862 205.16035,153.40701 241.96465,149.17019 328.72866,139.18213 358.48078,134.43936 445.3115,139.48875 532.14222,144.53815 541.52807,164.20605 623.65825,192.7665 650.77998,202.19797 678.77829,210.97436 678.77829,210.97436"
       id="h3-9"
       inkscape:connector-curvature="0"
       inkscape:label="#path3155"
       sodipodi:nodetypes="csssc" />
    <path
       style="fill:none;stroke:#000000;stroke-width:1px;stroke-linecap:butt;stroke-linejoin:miter;stroke-opacity:1"
       d="M 126.27118,162.08037 C 259.52864,243.6785 265.67846,504.04256 323.72882,544.0678"
       id="h3-5"
       inkscape:connector-curvature="0"
       inkscape:label="#path3147"
       sodipodi:nodetypes="cc" />
    <path
       style="fill:none;stroke:#000000;stroke-width:1px;stroke-linecap:butt;stroke-linejoin:miter;stroke-opacity:1"
       d="M 122.0339,161.01694 C 122.0339,161.01694 167.66222,174.78141 180.50848,183.05085 366.07735,302.50588 428.82063,512.26273 636.44068,593.22034 649.88634,598.46323 683.05085,602.54237 683.05085,602.54237"
       id="h3-7"
       inkscape:connector-curvature="0"
       inkscape:label="#path3149"
       sodipodi:nodetypes="cssc" />
  </g>
  <g
     inkscape:groupmode="layer"
     id="layer2"
     inkscape:label="h4"
     style="display:none">
    <path
       style="fill:none;stroke:#000000;stroke-width:1px;stroke-linecap:butt;stroke-linejoin:miter;stroke-opacity:1"
       d="M 264.40678,372.88135 C 264.40678,372.88135 329.99765,378.94165 353.38983,367.79661 614.82324,243.23853 407.91324,126.34393 491.52542,109.32203 515.78328,104.38358 524.57627,107.62712 524.57627,107.62712"
       id="h4-9"
       inkscape:connector-curvature="0"
       inkscape:label="#path3169"
       sodipodi:nodetypes="cssc" />
    <path
       style="fill:none;stroke:#000000;stroke-width:1px;stroke-linecap:butt;stroke-linejoin:miter;stroke-opacity:1"
       d="M 267.79661,372.88136 C 267.79661,372.88136 298.86749,382.21689 328.81356,385.59322 399.28508,393.53867 391.79422,401.46462 462.71186,401.69491 499.44433,401.81419 530.50847,409.32203 530.50847,409.32203"
       id="h4-7"
       inkscape:connector-curvature="0"
       inkscape:label="#path3165"
       sodipodi:nodetypes="cssc" />
    <path
       style="fill:none;stroke:#000000;stroke-width:1px;stroke-linecap:butt;stroke-linejoin:miter;stroke-opacity:1"
       d="M 266.94915,371.18644 C 266.94915,371.18644 297.5046,380.53573 322.88136,392.37288 556.41127,501.30445 416.17727,650.34413 488.13559,735.59322 500.11803,749.78883 524.57628,744.91526 524.57628,744.91526"
       id="h4-5"
       inkscape:connector-curvature="0"
       inkscape:label="#path3163"
       sodipodi:nodetypes="cssc" />
    <path
       style="fill:none;stroke:#000000;stroke-width:1px;stroke-linecap:butt;stroke-linejoin:miter;stroke-opacity:1"
       d="M 265.25424,373.72881 C 265.25424,373.72881 284.19156,370.24805 294.91526,386.44068 330.53061,440.21938 270.97045,498.6349 303.38983,548.30508 310.24626,558.80992 330.50848,559.32204 330.50848,559.32204"
       id="h4-4"
       inkscape:connector-curvature="0"
       inkscape:label="#path3161"
       sodipodi:nodetypes="cssc" />
    <path
       style="fill:none;stroke:#000000;stroke-width:1px;stroke-linecap:butt;stroke-linejoin:miter;stroke-opacity:1"
       d="M 263.55932,372.0339 C 263.55932,372.0339 283.88419,374.35337 288.13559,381.35594 333.57545,456.20083 123.79647,543.80194 122.88136,631.35593 122.71362,647.40395 133.05085,655.08475 133.05085,655.08475"
       id="h4-3"
       inkscape:connector-curvature="0"
       inkscape:label="#path3159"
       sodipodi:nodetypes="cssc" />
    <path
       style="fill:none;stroke:#000000;stroke-width:1px;stroke-linecap:butt;stroke-linejoin:miter;stroke-opacity:1;display:inline"
       d="M 266.94915,374.57628 C 266.94915,374.57628 293.23563,378.08609 302.54238,371.18644 358.58903,329.63566 244.97036,264.58747 307.62712,233.89831 318.78304,228.43416 332.20339,233.89831 332.20339,233.89831"
       id="h4-10"
       inkscape:connector-curvature="0"
       inkscape:label="#path3171"
       sodipodi:nodetypes="cssc" />
    <path
       style="fill:none;stroke:#000000;stroke-width:1px;stroke-linecap:butt;stroke-linejoin:miter;stroke-opacity:1;display:inline"
       d="M 268.64407,372.88136 C 268.64407,372.88136 319.40561,375.90776 350,369.49153 490.34565,340.05834 484.8317,249.96291 624.57627,217.79661 635.86641,215.19785 674.57628,217.79661 674.57628,217.79661"
       id="h4-8"
       inkscape:connector-curvature="0"
       inkscape:label="#path3167"
       sodipodi:nodetypes="cssc" />
  </g>
  <g
     inkscape:groupmode="layer"
     id="layer3"
     inkscape:label="h5"
     style="display:none">
    <path
       style="fill:none;stroke:#000000;stroke-width:1px;stroke-linecap:butt;stroke-linejoin:miter;stroke-opacity:1"
       d="M 122.74023,542.51829 C 189.09466,507.93425 257.46952,488.48817 266.94916,363.55932 271.74206,300.39538 268.34183,251.76237 319.38871,238.2238"
       id="h5-9"
       inkscape:connector-curvature="0"
       inkscape:label="#path3183"
       sodipodi:nodetypes="csc" />
    <path
       style="fill:none;stroke:#000000;stroke-width:1px;stroke-linecap:butt;stroke-linejoin:miter;stroke-opacity:1"
       d="M 127.68866,543.00261 C 127.68866,543.00261 181.40124,538.30557 199.37456,531.5744 396.33418,457.81125 430.7263,317.59389 628.39301,245.74706 645.293,239.60434 669.61301,237.76891 669.61301,237.76891"
       id="h5-7"
       inkscape:connector-curvature="0"
       inkscape:label="#path3179"
       sodipodi:nodetypes="cssc" />
    <path
       style="fill:none;stroke:#000000;stroke-width:1px;stroke-linecap:butt;stroke-linejoin:miter;stroke-opacity:1"
       d="M 130.50847,550.80487 C 130.50847,550.80487 166.71841,543.1993 205.9322,533.8983 288.10813,514.40725 274.09063,517.85046 401.69491,521.18644 533.82207,524.64066 578.3567,557.19294 619.49152,574.57628 662.11541,592.58888 684.74576,602.54237 684.74576,602.54237"
       id="h5-5"
       inkscape:connector-curvature="0"
       inkscape:label="#path3177"
       sodipodi:nodetypes="csssc" />
    <path
       style="fill:none;stroke:#000000;stroke-width:1px;stroke-linecap:butt;stroke-linejoin:miter;stroke-opacity:1"
       d="M 125.56913,543.05729 C 186.58657,535.12589 247.82581,532.57521 321.14386,541.96163"
       id="h5-3"
       inkscape:connector-curvature="0"
       inkscape:label="#path3173"
       sodipodi:nodetypes="cc" />
    <path
       style="fill:none;stroke:#000000;stroke-width:1px;stroke-linecap:butt;stroke-linejoin:miter;stroke-opacity:1"
       d="M 127.11864,551.69492 C 127.11864,551.69492 186.99927,548.15387 221.18644,554.23729 329.68381,573.54381 327.30426,721.25266 434.74576,745.76271 469.1996,753.62248 526.27118,750.84746 526.27118,750.84746"
       id="h5-4"
       inkscape:connector-curvature="0"
       inkscape:label="#path3175"
       sodipodi:nodetypes="cssc" />
    <path
       style="fill:none;stroke:#000000;stroke-width:1px;stroke-linecap:butt;stroke-linejoin:miter;stroke-opacity:1"
       d="M 128.8312,543.17776 C 128.8312,543.17776 169.71812,534.19614 202.54237,519.49153 270.61559,488.9961 278.07834,412.45747 252.54237,342.37288 226.8896,271.96772 215.1196,279.11782 166.94915,234.74577 139.52333,209.48256 118.00077,172.17741 119.49153,137.28813 120.33487,117.55077 133.8983,117.79661 133.8983,117.79661"
       id="h5-10"
       inkscape:connector-curvature="0"
       inkscape:label="#path3185"
       sodipodi:nodetypes="cssssc" />
    <path
       style="fill:none;stroke:#000000;stroke-width:1px;stroke-linecap:butt;stroke-linejoin:miter;stroke-opacity:1"
       d="M 125.74553,543.00261 C 125.74553,543.00261 180.3331,544.14042 295.49435,504.80679 406.43572,466.91446 457.66404,375.00638 468.60805,258.2843 477.45761,163.90036 471.62401,217.55256 483.9578,127.53314 486.23801,110.89081 513.10777,114.11922 513.10777,114.11922"
       id="h5-8"
       inkscape:connector-curvature="0"
       inkscape:label="#path3181"
       sodipodi:nodetypes="csssc" />
  </g>
  <g
     inkscape:groupmode="layer"
     id="layer4"
     inkscape:label="h6"
     style="display:none">
    <path
       style="fill:none;stroke:#000000;stroke-width:1px;stroke-linecap:butt;stroke-linejoin:miter;stroke-opacity:1"
       d="M 275.42373,673.72882 C 275.42373,673.72882 298.76619,669.37982 305.08475,659.32203 355.19729,579.55373 322.62601,436.9731 281.35593,333.8983 250.37226,256.5145 239.38292,251.13779 196.61017,212.71186 172.02021,190.62088 131.07941,172.08636 126.27119,144.0678 122.24838,120.62598 128.81356,116.10169 128.81356,116.10169"
       id="h6-9"
       inkscape:connector-curvature="0"
       inkscape:label="#path3197"
       sodipodi:nodetypes="cssssc" />
    <path
       style="fill:none;stroke:#000000;stroke-width:1px;stroke-linecap:butt;stroke-linejoin:miter;stroke-opacity:1"
       d="M 269.49153,671.18645 C 269.49153,671.18645 293.15922,678.53644 302.54237,666.10169 369.76984,577.01041 297.45763,330.50848 301.69492,280.50847 305.79336,232.14684 329.66102,238.98305 329.66102,238.98305"
       id="h6-8"
       inkscape:connector-curvature="0"
       sodipodi:nodetypes="cssc"
       inkscape:label="#path3195" />
    <path
       style="fill:none;stroke:#000000;stroke-width:1px;stroke-linecap:butt;stroke-linejoin:miter;stroke-opacity:1"
       d="M 272.88135,671.18644 C 272.88135,671.18644 306.12038,671.98555 309.32203,656.77966 349.72457,464.89182 366.85675,435.75029 454.23729,297.45763 503.0653,220.18007 460.71911,192.56684 488.1356,126.27119 492.88683,114.78227 520.33898,113.55932 520.33898,113.55932"
       id="h6-7"
       inkscape:connector-curvature="0"
       sodipodi:nodetypes="csssc"
       inkscape:label="#path3193" />
    <path
       style="fill:none;stroke:#000000;stroke-width:1px;stroke-linecap:butt;stroke-linejoin:miter;stroke-opacity:1"
       d="M 274.57627,675.42373 C 274.57627,675.42373 368.59964,675.23784 425.42373,655.08475 471.86294,638.61473 477.89451,592.59434 482.20339,540.67797 484.97652,507.26537 477.11374,497.58251 500,441.52542 503.41676,433.15649 527.96611,434.74576 527.96611,434.74576"
       id="h6-5"
       inkscape:connector-curvature="0"
       inkscape:label="#path3191"
       sodipodi:nodetypes="csssc" />
    <path
       style="fill:none;stroke:#000000;stroke-width:1px;stroke-linecap:butt;stroke-linejoin:miter;stroke-opacity:1"
       d="M 273.72881,672.88135 C 273.72881,672.88135 308.8452,674.53126 342.37288,672.0339 458.25351,663.40236 522.41702,630.79101 644.91525,622.0339 654.21356,621.36919 687.28813,622.0339 687.28813,622.0339"
       id="h6-4"
       inkscape:connector-curvature="0"
       inkscape:label="#path3189"
       sodipodi:nodetypes="cssc" />
    <path
       style="fill:none;stroke:#000000;stroke-width:1px;stroke-linecap:butt;stroke-linejoin:miter;stroke-opacity:1"
       d="M 270.33898,673.72881 C 270.33898,673.72881 304.25896,672.0647 317.79661,672.88136 397.14292,677.66773 411.18748,749.904 490.67797,750 502.31487,750.014 523.72881,750.84745 523.72881,750.84745"
       id="h6-3"
       inkscape:connector-curvature="0"
       inkscape:label="#path3187"
       sodipodi:nodetypes="cssc" />
    <path
       style="fill:none;stroke:#000000;stroke-width:1px;stroke-linecap:butt;stroke-linejoin:miter;stroke-opacity:1;display:inline"
       d="M 272.88135,672.88136 C 272.88135,672.88136 294.95732,666.71564 301.69492,657.62712 331.52098,617.39398 279.20361,551.87692 238.98305,522.0339 172.30733,472.56157 57.516299,412.90191 20.338983,321.18644 -2.6292671,264.52436 11.584759,223.23386 5.9322034,148.56212 5.4412673,142.07673 9.9212765,142.4757 9.9212765,142.4757"
       id="h6-10"
       inkscape:connector-curvature="0"
       inkscape:label="#path3199"
       sodipodi:nodetypes="cssssc" />
  </g>
  <g
     inkscape:groupmode="layer"
     id="layer5"
     inkscape:label="main">
    <rect
       style="opacity:0.19341562;fill:#860000;fill-opacity:1;stroke:#000096;stroke-width:15.19999981;stroke-miterlimit:4;stroke-opacity:1;stroke-dasharray:none"
       id="rect3904"
       width="80.298553"
       height="5.9924326"
       x="360.74429"
       y="231.9176" />
    <rect
       style="opacity:0.19341562;fill:#860000;fill-opacity:1;stroke:#000096;stroke-width:15.19999981;stroke-miterlimit:4;stroke-opacity:1;stroke-dasharray:none"
       id="rect3906"
       width="64.718246"
       height="8.3894062"
       x="161.79562"
       y="107.27505" />
    <rect
       style="opacity:0.19341562;fill:#860000;fill-opacity:1;stroke:#000096;stroke-width:15.19999981;stroke-miterlimit:4;stroke-opacity:1;stroke-dasharray:none"
       id="rect3911"
       width="75.504623"
       height="9.5878925"
       x="19.175777"
       y="130.04628" />
    <rect
       style="opacity:0.19341562;fill:#860000;fill-opacity:1;stroke:#000096;stroke-width:15.19999981;stroke-miterlimit:4;stroke-opacity:1;stroke-dasharray:none"
       id="rect3913"
       width="69.512192"
       height="11.98486"
       x="154.60471"
       y="348.17075" />
    <rect
       style="opacity:0.19341562;fill:#860000;fill-opacity:1;stroke:#000096;stroke-width:15.19999981;stroke-miterlimit:4;stroke-opacity:1;stroke-dasharray:none"
       id="rect3915"
       width="69.512192"
       height="7.1909165"
       x="22.771235"
       y="553.11188" />
    <rect
       style="opacity:0.19341562;fill:#860000;fill-opacity:1;stroke:#000096;stroke-width:15.19999981;stroke-miterlimit:4;stroke-opacity:1;stroke-dasharray:none"
       id="rect3917"
       width="69.512192"
       height="10.786375"
       x="157.00168"
       y="665.76953" />
    <rect
       style="opacity:0.19341562;fill:#860000;fill-opacity:1;stroke:#000096;stroke-width:15.19999981;stroke-miterlimit:4;stroke-opacity:1;stroke-dasharray:none"
       id="rect3919"
       width="67.796608"
       height="8.474576"
       x="356.77966"
       y="549.15253" />
    <rect
       style="opacity:0.19341562;fill:#860000;fill-opacity:1;stroke:#000096;stroke-width:15.19999981;stroke-miterlimit:4;stroke-opacity:1;stroke-dasharray:none"
       id="rect3921"
       width="68.644066"
       height="12.711864"
       x="557.62714"
       y="762.71185" />
    <rect
       style="opacity:0.19341562;fill:#860000;fill-opacity:1;stroke:#000096;stroke-width:15.19999981;stroke-miterlimit:4;stroke-opacity:1;stroke-dasharray:none"
       id="rect3923"
       width="73.728813"
       height="9.3220339"
       x="712.71185"
       y="629.66101" />
    <rect
       style="opacity:0.19341562;fill:#860000;fill-opacity:1;stroke:#000096;stroke-width:15.19999981;stroke-miterlimit:4;stroke-opacity:1;stroke-dasharray:none"
       id="rect3925"
       width="68.644066"
       height="10.169492"
       x="555.08472"
       y="427.11865" />
    <rect
       style="opacity:0.19341562;fill:#860000;fill-opacity:1;stroke:#000096;stroke-width:15.19999981;stroke-miterlimit:4;stroke-opacity:1;stroke-dasharray:none"
       id="rect3927"
       width="70.338982"
       height="11.016949"
       x="710.16949"
       y="228.81355" />
    <rect
       style="opacity:0.19341562;fill:#860000;fill-opacity:1;stroke:#000096;stroke-width:15.19999981;stroke-miterlimit:4;stroke-opacity:1;stroke-dasharray:none"
       id="rect3929"
       width="65.254234"
       height="12.711864"
       x="556.77966"
       y="103.38983" />
  </g>
  <g
     inkscape:groupmode="layer"
     id="layer6"
     inkscape:label="h7"
     style="display:none">
    <path
       style="fill:none;stroke:#000000;stroke-width:1px;stroke-linecap:butt;stroke-linejoin:miter;stroke-opacity:1"
       d="M 455.92489,558.5348 C 455.92489,558.5348 473.77985,563.72294 481.14301,546.65276 517.36244,462.68434 471.79165,369.89263 525.60441,291.78397 563.01349,237.48508 579.87281,227.47393 643.91207,225.54721 652.1199,225.30027 675.08001,224.84515 675.08001,224.84515"
       id="h7-5"
       inkscape:connector-curvature="0"
       inkscape:label="#path3205"
       sodipodi:nodetypes="csssc" />
    <path
       style="fill:none;stroke:#000000;stroke-width:1px;stroke-linecap:butt;stroke-linejoin:miter;stroke-opacity:1"
       d="M 454.4782,559.9815 C 454.4782,559.9815 484.15277,564.56436 488.53954,556.98529 518.09653,505.91932 493.51236,489.3001 506.29054,441.82958 508.1262,435.01018 526.87774,435.23791 526.87774,435.23791"
       id="h7-4"
       inkscape:connector-curvature="0"
       inkscape:label="#path3203"
       sodipodi:nodetypes="cssc" />
    <path
       style="fill:none;stroke:#000000;stroke-width:1px;stroke-linecap:butt;stroke-linejoin:miter;stroke-opacity:1"
       d="M 456.77235,560.93177 C 456.77235,560.93177 469.28613,561.06312 471.61534,544.50399 483.32505,461.25582 412.62213,366.55132 343.22034,312.71186 254.00293,243.50015 44.422851,358.44261 10.169492,250.84746 -1.2614602,214.94106 3.0298766,181.86733 5.9322034,132.20339 6.0475646,130.22936 11.864407,132.20339 11.864407,132.20339"
       id="h7-9"
       inkscape:connector-curvature="0"
       inkscape:label="#path3211"
       sodipodi:nodetypes="cssssc" />
    <path
       style="fill:none;stroke:#000000;stroke-width:1px;stroke-linecap:butt;stroke-linejoin:miter;stroke-opacity:1"
       d="M 455.82209,559.9815 C 455.82209,559.9815 459.90131,570.04931 473.90949,552.8934 504.16745,515.83628 467.51094,451.50865 446.61017,408.47458 381.76515,274.96057 219.47151,245.96821 132.03304,150.56699 113.51888,130.3668 107.26433,111.1096 129.03683,111.5091"
       id="h7-8"
       inkscape:connector-curvature="0"
       inkscape:label="#path3209"
       sodipodi:nodetypes="csssc" />
    <path
       style="fill:none;stroke:#000000;stroke-width:1px;stroke-linecap:butt;stroke-linejoin:miter;stroke-opacity:1"
       d="M 455.07744,560.58075 C 455.07744,560.58075 466.71857,556.98529 457.13069,543.80194 448.82318,532.37912 420.09963,505.70831 372.03818,496.03587 260.91599,473.67238 247.77916,512.5589 160.73648,468.83206 124.6257,450.69141 98.600654,411.77296 114.38914,371.01609 117.34833,363.37715 135.96919,365.02366 135.96919,365.02366"
       id="h7-10"
       inkscape:connector-curvature="0"
       sodipodi:nodetypes="cssssc"
       inkscape:label="#path3213" />
    <path
       style="fill:none;stroke:#000000;stroke-width:1px;stroke-linecap:butt;stroke-linejoin:miter;stroke-opacity:1"
       d="M 454.72641,559.38226 498.21261,561.17999 C 570.54244,563.08533 557.59695,607.86094 630.67883,612.05543 663.03594,614.8808 664.08675,613.81355 686.01178,612.86029"
       id="h7-3"
       inkscape:connector-curvature="0"
       inkscape:label="#path3201"
       sodipodi:nodetypes="cccc" />
    <path
       style="fill:none;stroke:#000000;stroke-width:1px;stroke-linecap:butt;stroke-linejoin:miter;stroke-opacity:1"
       d="M 456.13783,556.38604 C 495.04852,488.46264 383.77733,405.3746 344.00026,337.95491 308.9336,278.51906 292.57015,234.16387 321.22903,234.78407"
       id="h7-7"
       inkscape:connector-curvature="0"
       inkscape:label="#path3207"
       sodipodi:nodetypes="csc" />
  </g>
  <g
     inkscape:groupmode="layer"
     id="layer9"
     inkscape:label="h8"
     style="display:none">
    <path
       style="fill:none;stroke:#000000;stroke-width:1px;stroke-linecap:butt;stroke-linejoin:miter;stroke-opacity:1"
       d="M 657.36961,764.04542 C 657.36961,764.04542 675.67746,768.19878 680.74009,762.24769 700.743,738.73441 692.97439,693.45919 672.94993,669.96426 615.61259,602.68971 533.6753,559.91933 495.57399,484.19892 489.00439,471.14287 488.69242,451.2268 498.57021,440.45418 502.94249,435.68581 517.74598,437.45796 517.74598,437.45796"
       id="h8-3"
       inkscape:connector-curvature="0"
       sodipodi:nodetypes="cssssc"
       inkscape:label="#path3132" />
    <path
       style="fill:none;stroke:#000000;stroke-width:1px;stroke-linecap:butt;stroke-linejoin:miter;stroke-opacity:1"
       d="M 659.16734,764.04542 C 659.16734,764.04542 693.03454,767.81639 693.92344,752.65979 702.28374,610.109 639.92594,395.9064 671.1522,242.70398 672.79177,234.65993 686.13328,237.31079 686.13328,237.31079"
       id="h8-4"
       inkscape:connector-curvature="0"
       inkscape:label="#path3134"
       sodipodi:nodetypes="cssc" />
    <path
       style="fill:none;stroke:#000000;stroke-width:1px;stroke-linecap:butt;stroke-linejoin:miter;stroke-opacity:1"
       d="M 659.16734,764.64466 C 659.16734,764.64466 681.38684,770.03768 685.53403,762.24769 732.96234,673.15939 547.91231,597.40957 520.14295,500.37848 485.62974,379.7832 488.28459,240.78929 518.94447,121.05764 520.78507,113.86979 530.92933,116.86294 530.92933,116.86294"
       id="h8-5"
       inkscape:connector-curvature="0"
       sodipodi:nodetypes="csssc"
       inkscape:label="#path3136" />
    <path
       style="fill:none;stroke:#000000;stroke-width:1px;stroke-linecap:butt;stroke-linejoin:miter;stroke-opacity:1"
       d="M 658.5681,765.2439 C 658.5681,765.2439 682.37216,769.6022 688.53025,761.64845 709.6292,734.39719 697.24823,685.28386 674.74766,659.17789 502.42491,459.24287 293.1389,337.10953 128.83725,139.03493 123.60866,132.73158 123.17346,120.38137 128.83725,114.46597 132.0175,111.14444 142.61984,113.86672 142.61984,113.86672"
       id="h8-7"
       inkscape:connector-curvature="0"
       inkscape:label="#path3138"
       sodipodi:nodetypes="cssssc" />
    <path
       style="fill:none;stroke:#000000;stroke-width:1px;stroke-linecap:butt;stroke-linejoin:miter;stroke-opacity:1"
       d="M 660.36582,764.64466 C 660.36582,764.64466 683.5568,761.06042 688.53025,752.06056 702.28902,727.16295 692.54992,691.08429 676.54539,667.56729 575.51389,519.112 461.82703,408.8642 294.22833,302.02904 210.92688,248.92885 -4.3801314,319.81925 0,223.5282 1.2881522,195.20998 0.07124926,184.96415 0.59924304,140.23342 0.62989213,137.63688 8.3894025,140.23342 8.3894025,140.23342"
       id="h8-8"
       inkscape:connector-curvature="0"
       inkscape:label="#path3140"
       sodipodi:nodetypes="csssssc" />
    <path
       style="fill:none;stroke:#000000;stroke-width:1px;stroke-linecap:butt;stroke-linejoin:miter;stroke-opacity:1"
       d="M 658.5681,766.44239 C 658.5681,766.44239 678.64631,764.41213 683.13706,756.8545 695.27421,736.42847 690.07453,703.77594 674.14841,686.14382 615.82169,621.56918 562.29484,567.00515 494.3755,518.35577 388.97122,442.85662 194.69922,549.44672 111.4592,450.04207 92.351258,427.2235 84.269309,383.69001 107.86374,365.5488 118.2347,357.57481 130.03574,360.75486 130.03574,360.75486"
       id="h8-9"
       inkscape:connector-curvature="0"
       inkscape:label="#path3142"
       sodipodi:nodetypes="csssssc" />
    <path
       style="fill:none;stroke:#000000;stroke-width:1px;stroke-linecap:butt;stroke-linejoin:miter;stroke-opacity:1"
       d="M 659.76658,764.04542 C 659.76658,764.04542 677.12443,760.09925 682.53782,750.86207 696.77242,726.57273 683.83389,684.31236 656.77037,676.55594 595.79292,659.07977 571.34801,665.80085 522.53993,662.77334 399.42286,655.13653 276.04102,641.76124 152.80697,647.19303 102.09004,649.42848 1.2760012,669.19285 1.7977291,637.00589 2.3081309,605.51767 3.8916875,605.62869 1.1984861,561.50127 0.64956848,552.50739 8.3894025,556.10808 8.3894025,556.10808"
       id="h8-10"
       inkscape:connector-curvature="0"
       inkscape:label="#path3144"
       sodipodi:nodetypes="cssssssc" />
  </g>
  <g
     inkscape:groupmode="layer"
     id="layer10"
     inkscape:label="h9"
     style="display:none">
    <path
       style="fill:none;stroke:#000000;stroke-width:1px;stroke-linecap:butt;stroke-linejoin:miter;stroke-opacity:1"
       d="M 798.19172,625.02103 C 798.19172,625.02103 799.94072,576.05523 796.99324,539.92852 788.35749,434.08187 673.12737,358.57271 670.55296,247.49792 670.27559,235.53074 690.76377,235.8292 690.76377,235.8292 L 690.92722,236.1123"
       id="h9-3"
       inkscape:connector-curvature="0"
       inkscape:label="#path3147"
       sodipodi:nodetypes="csscc" />
    <path
       style="fill:none;stroke:#000000;stroke-width:1px;stroke-linecap:butt;stroke-linejoin:miter;stroke-opacity:1"
       d="M 796.99324,624.42179 C 796.99324,624.42179 796.52738,574.08582 796.39399,548.91717 795.96038,467.10359 731.07667,403.56439 687.33176,337.38438 633.82605,256.43762 603.71333,260.35865 509.95582,121.05764 502.71657,110.30186 524.33766,111.46975 524.33766,111.46975"
       id="h9-4"
       inkscape:connector-curvature="0"
       inkscape:label="#path3149"
       sodipodi:nodetypes="csssc" />
    <path
       style="fill:none;stroke:#000000;stroke-width:1px;stroke-linecap:butt;stroke-linejoin:miter;stroke-opacity:1"
       d="M 797.59248,624.42179 C 797.59248,624.42179 797.95199,572.88438 797.59248,547.11944 796.40722,462.17484 717.34682,367.82215 638.79307,329.59422 535.20087,279.18139 478.73075,301.62423 333.97366,267.18776 320.95391,264.09048 293.42066,245.23526 302.61773,235.51306 307.56706,230.28114 324.19048,234.31457 324.19048,234.31457"
       id="h9-5"
       inkscape:connector-curvature="0"
       inkscape:label="#path3151"
       sodipodi:nodetypes="cssssc" />
    <path
       style="fill:none;stroke:#000000;stroke-width:1px;stroke-linecap:butt;stroke-linejoin:miter;stroke-opacity:1"
       d="M 797.59248,623.2233 C 797.59248,623.2233 795.64366,563.29734 794.59626,533.33685 791.53246,445.69819 698.72979,371.20216 618.83007,326.93139 522.72232,273.68009 431.07203,350.11763 205.45091,248.1075 175.20539,234.43258 150.1399,163.37005 121.4159,126.78649 92.691906,90.202928 74.947896,102.00379 16.820139,101.70421 4.9929396,101.64326 4.3461551,120.74189 4.3461551,120.74189"
       id="h9-7"
       inkscape:connector-curvature="0"
       inkscape:label="#path3153"
       sodipodi:nodetypes="csssssc" />
    <path
       style="fill:none;stroke:#000000;stroke-width:1px;stroke-linecap:butt;stroke-linejoin:miter;stroke-opacity:1"
       d="M 796.39399,620.82633 C 796.39399,620.82633 797.00703,566.46864 795.79475,539.32928 792.56149,466.94607 734.51872,398.93365 675.3469,355.96091 637.31469,328.34052 586.25662,321.29167 539.31873,318.80784 454.6479,314.32727 208.25807,307.16035 124.67658,321.42078 99.916508,325.64527 124.02441,345.14959 124.02441,345.14959"
       id="h9-8"
       inkscape:connector-curvature="0"
       inkscape:label="#path3155"
       sodipodi:nodetypes="cssssc" />
    <path
       style="fill:none;stroke:#000000;stroke-width:1px;stroke-linecap:butt;stroke-linejoin:miter;stroke-opacity:1"
       d="M 797.59248,623.82255 C 797.59248,623.82255 804.8282,663.2933 771.96312,660.54067 723.28488,656.4636 667.30596,655.98502 568.51383,657.97056 463.21677,660.08684 394.35221,671.24348 287.3209,642.43562 197.38975,618.23032 157.41437,603.56113 129.23995,636.65914 117.81403,650.08179 123.19763,660.59359 123.19763,660.59359"
       id="h9-10"
       inkscape:connector-curvature="0"
       inkscape:label="#path3157"
       sodipodi:nodetypes="cssssc" />
    <path
       style="fill:none;stroke:#000000;stroke-width:1px;stroke-linecap:butt;stroke-linejoin:miter;stroke-opacity:1"
       d="M 796.39399,625.02103 C 796.39399,625.02103 800.60633,561.29838 793.99702,522.55047 788.36086,489.5078 691.92674,499.32944 645.38475,499.77924 432.84203,501.83332 177.72226,470.98175 7.7901595,511.16486 -5.6225385,514.3365 7.7901595,552.51263 7.7901595,552.51263"
       id="h9-9"
       inkscape:connector-curvature="0"
       inkscape:label="#path3159"
       sodipodi:nodetypes="csssc" />
  </g>
  <g
     inkscape:groupmode="layer"
     id="layer11"
     inkscape:label="h10"
     style="display:none">
    <path
       style="fill:none;stroke:#000000;stroke-width:1px;stroke-linecap:butt;stroke-linejoin:miter;stroke-opacity:1"
       d="M 654.97264,431.46553 C 654.97264,431.46553 678.09937,434.80154 681.93857,426.67159 693.86163,401.42315 690.57171,365.68793 678.34312,336.78513 647.34974,263.53094 543.54972,237.87036 513.55128,164.20314 506.77083,147.55237 500.31021,123.05434 512.95204,110.27127 515.90162,107.28874 525.53614,110.27127 525.53614,110.27127"
       id="h10-3"
       inkscape:connector-curvature="0"
       inkscape:label="#path3163"
       sodipodi:nodetypes="cssssc" />
    <path
       style="fill:none;stroke:#000000;stroke-width:1px;stroke-linecap:butt;stroke-linejoin:miter;stroke-opacity:1"
       d="M 655.57188,430.86629 C 655.57188,430.86629 677.87429,434.09236 681.33933,426.07235 695.59457,393.07791 681.74667,336.97698 654.97264,310.41844 571.87765,227.99228 392.91873,358.05803 317.59881,268.47143 311.55181,261.27904 313.22228,247.87114 318.79729,240.30701 322.32084,235.52627 335.5761,234.31457 335.5761,234.31457"
       id="h10-4"
       inkscape:connector-curvature="0"
       inkscape:label="#path3165"
       sodipodi:nodetypes="cssssc" />
    <path
       style="fill:none;stroke:#000000;stroke-width:1px;stroke-linecap:butt;stroke-linejoin:miter;stroke-opacity:1"
       d="M 656.77037,431.46553 C 656.77037,431.46553 675.93664,435.86753 678.94236,429.06856 693.40518,396.35357 682.51342,341.13584 654.3734,315.81163 572.39527,242.03657 437.83381,345.76631 333.77837,309.21995 249.49384,279.61753 182.15882,240.11371 142.61984,160.00844 137.49207,149.61966 112.855,119.66184 121.04709,111.46975 123.44822,109.06862 131.23422,111.46975 131.23422,111.46975"
       id="h10-5"
       inkscape:connector-curvature="0"
       inkscape:label="#path3167"
       sodipodi:nodetypes="csssssc" />
    <path
       style="fill:none;stroke:#000000;stroke-width:1px;stroke-linecap:butt;stroke-linejoin:miter;stroke-opacity:1"
       d="M 655.57188,430.86629 C 655.57188,430.86629 670.20744,428.82841 674.44803,433.56288 681.74824,441.7133 676.20181,464.45747 665.90882,468.16916 619.1507,485.03035 582.74942,482.94263 540.51722,467.42012 477.34115,444.19966 451.7679,415.32226 373.92766,376.33517 294.19359,336.39953 195.40088,290.49265 112.65769,318.80784 107.06974,320.72007 107.33248,340.77674 107.91473,348.73003 108.49698,356.68332 121.64634,355.96091 121.64634,355.96091"
       id="h10-7"
       inkscape:connector-curvature="0"
       inkscape:label="#path3169"
       sodipodi:nodetypes="cssssssc" />
    <path
       style="fill:none;stroke:#000000;stroke-width:1px;stroke-linecap:butt;stroke-linejoin:miter;stroke-opacity:1"
       d="M 655.57188,431.46553 C 655.57188,431.46553 669.0884,428.90403 672.94993,433.26326 680.36827,441.63773 681.89296,467.28589 664.56053,472.21406 562.10254,501.34616 478.27936,479.11945 381.11857,482.40119 206.5497,488.2975 110.11011,459.05585 8.3894025,526.14593 -2.1929297,533.12553 1.7977291,548.91717 1.7977291,548.91717"
       id="h10-8"
       inkscape:connector-curvature="0"
       inkscape:label="#path3171"
       sodipodi:nodetypes="cssssc" />
    <path
       style="fill:none;stroke:#000000;stroke-width:1px;stroke-linecap:butt;stroke-linejoin:miter;stroke-opacity:1"
       d="M 656.77037,432.06478 C 656.77037,432.06478 675.0561,427.93031 680.14084,433.86251 692.00525,447.70432 679.63958,487.9964 662.16355,493.18756 515.98127,536.61022 504.19992,504.56926 315.20184,512.36334 305.58889,512.75977 307.50852,533.0949 312.80486,541.12701 315.93436,545.87302 328.98443,546.5202 328.98443,546.5202"
       id="h10-10"
       inkscape:connector-curvature="0"
       inkscape:label="#path3175"
       sodipodi:nodetypes="cssssc" />
    <path
       style="fill:none;stroke:#000000;stroke-width:1px;stroke-linecap:butt;stroke-linejoin:miter;stroke-opacity:1"
       d="M 656.77037,431.46553 C 656.77037,431.46553 670.859,429.79431 674.74766,434.46175 682.54807,443.82435 680.78983,466.63885 669.95371,472.21406 564.66314,526.38626 432.2879,501.5445 312.80486,501.57697 242.14358,501.59617 136.45646,511.94878 115.65391,579.47856 103.60479,618.59272 107.37153,625.2433 116.25315,653.7847 117.91604,659.12844 133.03195,657.38016 133.03195,657.38016"
       id="h10-9"
       inkscape:connector-curvature="0"
       inkscape:label="#path3173"
       sodipodi:nodetypes="csssssc" />
  </g>
  <g
     inkscape:groupmode="layer"
     id="layer12"
     inkscape:label="h11"
     style="display:none">
    <path
       style="fill:none;stroke:#000000;stroke-width:1px;stroke-linecap:butt;stroke-linejoin:miter;stroke-opacity:1"
       d="M 792.79854,236.1123 C 792.79854,236.1123 801.18438,271.71283 789.20308,272.06689 414.04106,283.15331 403.4671,277.51974 319.99578,266.07446 309.30756,264.60893 312.8963,241.27281 320.59502,233.71533 323.87354,230.49696 334.37761,233.71533 334.37761,233.71533"
       id="h11-3"
       inkscape:connector-curvature="0"
       inkscape:label="#path3180"
       sodipodi:nodetypes="csssc" />
    <path
       style="fill:none;stroke:#000000;stroke-width:1px;stroke-linecap:butt;stroke-linejoin:miter;stroke-opacity:1"
       d="M 793.22034,238.13559 C 793.22034,238.13559 802.50335,269.29864 791.52542,272.0339 719.25143,290.04166 621.20253,274.90135 543.22034,291.52542 426.60454,316.38532 364.16803,458.08375 252.54237,500 175.49359,528.93238 62.108772,462.80028 6.779661,523.72881 1.2723607,529.79346 6.779661,548.30508 6.779661,548.30508"
       id="h11-7"
       inkscape:connector-curvature="0"
       inkscape:label="#path3184"
       sodipodi:nodetypes="cssssc" />
    <path
       style="fill:none;stroke:#000000;stroke-width:1px;stroke-linecap:butt;stroke-linejoin:miter;stroke-opacity:1"
       d="M 793.22034,237.28814 C 793.22034,237.28814 801.87979,266.60451 791.52542,269.49153 711.87009,291.70116 610.9476,287.92597 520.33898,288.13559 387.8646,288.44207 194.01002,290.67627 164.40678,262.71186 144.25546,243.67611 107.38931,169.58711 118.64407,123.72882 119.88559,118.67016 132.20339,111.86441 132.20339,111.86441"
       id="h11-4"
       inkscape:connector-curvature="0"
       inkscape:label="#path3186"
       sodipodi:nodetypes="cssssc" />
    <path
       style="fill:none;stroke:#000000;stroke-width:1px;stroke-linecap:butt;stroke-linejoin:miter;stroke-opacity:1"
       d="M 792.37288,234.74576 C 792.37288,234.74576 804.52594,269.15381 792.37288,272.88136 605.27824,330.26652 447.03776,296.6621 237.28814,288.1356 180.80232,285.8394 7.9762223,294.54429 4.2372881,238.13559 2.4813679,211.6443 4.2372881,139.83051 4.2372881,139.83051"
       id="h11-5"
       inkscape:connector-curvature="0"
       inkscape:label="#path3188"
       sodipodi:nodetypes="csssc" />
    <path
       style="fill:none;stroke:#000000;stroke-width:1px;stroke-linecap:butt;stroke-linejoin:miter;stroke-opacity:1"
       d="M 794.91525,237.28814 C 794.91525,237.28814 799.7956,264.29969 791.52542,272.88136 730.42374,336.28439 560.8235,294.82819 491.52543,349.15254 336.38202,470.77303 400.02596,432.10507 124.57627,583.8983 92.126507,601.78053 98.298197,658.28423 109.32203,671.18644 114.48948,677.23438 133.05085,673.72881 133.05085,673.72881"
       id="h11-8"
       inkscape:connector-curvature="0"
       inkscape:label="#path3190"
       sodipodi:nodetypes="cssssc" />
    <path
       style="fill:none;stroke:#000000;stroke-width:1px;stroke-linecap:butt;stroke-linejoin:miter;stroke-opacity:1"
       d="M 794.0678,238.98305 C 794.0678,238.98305 796.78202,264.07011 788.98305,272.0339 727.17883,335.14423 608.09731,289.94791 527.9661,317.79661 433.80961,350.51963 362.60271,446.16322 298.30508,509.32203 289.23648,518.23001 289.93146,537.89342 298.30508,547.45763 303.9369,553.89019 323.72881,550.84746 323.72881,550.84746"
       id="h11-9"
       inkscape:connector-curvature="0"
       inkscape:label="#path3192"
       sodipodi:nodetypes="cssssc" />
    <path
       style="fill:none;stroke:#000000;stroke-width:1px;stroke-linecap:butt;stroke-linejoin:miter;stroke-opacity:1"
       d="M 794.0678,236.44068 C 794.0678,236.44068 796.85186,257.16817 794.0678,266.94915 773.50834,339.17886 722.18339,399.70931 675.42373,458.47458 616.47119,532.56328 509.04194,570.62516 473.72881,658.47458 461.18718,689.67472 452.78977,735.25204 476.27119,759.32203 484.17145,767.42032 510.16949,761.01695 510.16949,761.01695"
       id="h11-10"
       inkscape:connector-curvature="0"
       inkscape:label="#path3194"
       sodipodi:nodetypes="cssssc" />
  </g>
  <g
     inkscape:groupmode="layer"
     id="layer13"
     inkscape:label="h12"
     style="display:none">
    <path
       style="fill:none;stroke:#000000;stroke-width:1px;stroke-linecap:butt;stroke-linejoin:miter;stroke-opacity:1"
       d="M 650.84746,111.01695 C 650.84746,111.01695 664.06861,109.23041 667.79661,113.55932 674.61711,121.4792 675.12711,137.46491 667.79661,144.91525 631.13928,182.17185 556.92469,172.4435 511.01695,147.45763 485.42501,133.52889 476.98725,124.99053 451.69491,122.0339 406.97281,116.80598 365.12695,117.84091 320.33898,123.72881 296.47789,126.86563 282.3125,129.73173 262.71186,141.52542 223.95696,164.84421 158.49577,169.0165 127.11864,136.44068 120.25971,129.31972 120.12747,113.77083 127.11864,106.77966 128.91637,104.98193 134.74576,106.77966 134.74576,106.77966"
       id="h12-3"
       inkscape:connector-curvature="0"
       sodipodi:nodetypes="cssssssssc"
       inkscape:label="#path3198" />
    <path
       style="fill:none;stroke:#000000;stroke-width:1px;stroke-linecap:butt;stroke-linejoin:miter;stroke-opacity:1"
       d="M 652.54237,111.86441 C 652.54237,111.86441 668.08741,107.07046 672.88136,111.86441 682.46925,121.4523 682.33594,142.82301 672.88136,152.54237 637.2161,189.20646 569.61698,166.96326 519.49153,156.77966 494.83962,151.77132 475.47753,130.53843 450.84746,125.42373 407.13911,116.34723 360.21815,116.98449 316.94915,127.9661 240.77768,147.29831 184.21285,218.821 107.62712,236.44068 75.682317,243.79005 14.908917,253.30641 9.3220339,233.89831 -0.23656595,200.69299 5.9322034,147.45763 5.9322034,147.45763"
       id="h12-4"
       inkscape:connector-curvature="0"
       inkscape:label="#path3200"
       sodipodi:nodetypes="csssssssc" />
    <path
       style="fill:none;stroke:#000000;stroke-width:1px;stroke-linecap:butt;stroke-linejoin:miter;stroke-opacity:1"
       d="M 654.23729,110.16949 C 654.23729,110.16949 670.05456,107.58974 674.57627,112.71186 685.04546,124.57118 684.62922,147.95534 674.57627,160.16949 599.29557,251.63417 511.97328,292.43798 413.55932,300 310.74616,307.90005 200.14281,272.67131 100,306.77966 87.940235,310.88718 89.117251,335.28468 97.457627,344.91525 102.28004,350.48366 119.49153,346.61017 119.49153,346.61017"
       id="h12-5"
       inkscape:connector-curvature="0"
       inkscape:label="#path3202"
       sodipodi:nodetypes="csssssc" />
    <path
       style="fill:none;stroke:#000000;stroke-width:1px;stroke-linecap:butt;stroke-linejoin:miter;stroke-opacity:1"
       d="M 651.69492,111.01695 C 651.69492,111.01695 671.56327,105.45847 677.11864,111.86441 687.35822,123.67176 679.21541,144.59335 672.0339,158.47458 561.78062,371.58458 228.82692,415.5964 133.05085,635.59322 128.5391,645.95667 133.89831,669.49153 133.89831,669.49153"
       id="h12-7"
       inkscape:connector-curvature="0"
       inkscape:label="#path3204"
       sodipodi:nodetypes="csssc" />
    <path
       style="fill:none;stroke:#000000;stroke-width:1px;stroke-linecap:butt;stroke-linejoin:miter;stroke-opacity:1"
       d="M 653.38983,111.01695 C 653.38983,111.01695 671.31075,109.29086 676.27119,115.25424 685.66492,126.54726 681.91672,145.76097 676.27119,159.32203 611.70792,314.4086 388.82685,361.78097 318.64407,514.40678 313.79241,524.95763 308.19544,540.64664 316.10169,549.15254 320.33276,553.70451 334.74576,549.15254 334.74576,549.15254 L 334.74576,549.15254"
       id="h12-8"
       inkscape:connector-curvature="0"
       inkscape:label="#path3206"
       sodipodi:nodetypes="csssscc" />
    <path
       style="fill:none;stroke:#000000;stroke-width:1px;stroke-linecap:butt;stroke-linejoin:miter;stroke-opacity:1"
       d="M 650.84746,109.32203 C 650.84746,109.32203 673.26939,101.33792 675.42373,112.71186 707.07703,279.82716 644.81043,452.04112 667.79661,621.18644 669.97967,637.25063 688.98305,631.35593 688.98305,631.35593"
       id="h12-10"
       inkscape:connector-curvature="0"
       inkscape:label="#path3210"
       sodipodi:nodetypes="cssc" />
    <path
       style="fill:none;stroke:#000000;stroke-width:1px;stroke-linecap:butt;stroke-linejoin:miter;stroke-opacity:1"
       d="M 651.69492,108.47458 C 651.69492,108.47458 674.08211,104.63769 680.50847,111.86441 693.08544,126.00776 687.38812,151.01214 680.50847,168.64407 647.15345,254.12995 569.10685,281.27248 515.25424,364.40678 443.38141,475.35955 452.22688,642.14516 499.15254,756.77966 504.16534,769.0254 520.33898,766.10169 520.33898,766.10169"
       id="h12-9"
       inkscape:connector-curvature="0"
       inkscape:label="#path3208"
       sodipodi:nodetypes="cssssc" />
  </g>
</svg>
